/* XPM */
static char *a4f130e1a4974846e9ca3504f4bcc60aij7BtBJzz78uKr8L[] = {
/* columns rows colors chars-per-pixel */
"32 32 4 1 ",
"  c #FFC33C",
". c #FFCD5A",
"X c #FFD778",
"o c #FFE096",
/* pixels */
"XXXXXXXXX..XXXXXXXXXXXX.XXXXXXXX",
"XXXXXXXXX..XXXoXXXXXXXXXXXooXXXX",
"  XXXoXXXXXXXXXXXXXXXX XXXooXXXX",
"  XXXXXXXXXXXXXXXXXXXXXXXXXXXXXX",
"XXXXXXXXXXXXXXXXXXXXXXXXXXXXX.XX",
"XXXXX.XXXXXXXXXXXXX.XXXXXXXXXXXX",
"XXXXXXXXXXXXXXXXXXXXXXXXXXXXXXXX",
"XXXXXXXXXXXX  XXXXXXXXXX  XXXXXX",
"XXXXXXXXXXXX  XXXXXXXXXX  XXXXX ",
"XXXXXXXXXXXXXXXXXXXXXXXXXXXXXXXX",
"XXXXXXXXXXXXXXXXXXooXXXXXXXXXXXX",
"XXXXooXXXXXXXXXXXXooXXXXXXXXXXXX",
"XXXXooXXXXXXXXXXXXXXXXXXXXXXXXoX",
"XXXXXXXXXXXXXXXXXXXXXXXXX..XXXXX",
"XXXXXXXX..XXXXXXXXXXXXXXX..XXXXX",
"XXXXXXXX..XXXXXXXXXXXXXXXXXXXXXX",
"XXXXXXXXXXXXXXXXXXXXXXXXXXXXXXXX",
"X.XXXXXXXXXXXXXXXXXXXXXXXXXXXXXX",
"XXXXXXXXXXXXX.XXXXXXXXXXXXXXXXXX",
"XXXXXXXXXXXXXXXXXXXXXXXXXXXXXXXX",
"XXXXXXXXXXXXXXXXXXXXX.XXXXXXXXXX",
"XXXXXXXXXXXXXXXXXXXXXXXXXXXXXXXX",
"XXXX  XXXXXXXXXXXXXXXXXXXXXXXX  ",
"XXXX  XXXXXXXXXXXooXXXXXXXXXXX  ",
"XXXXXXXXXXXXXXXXXooXXXXXXXXXXXXX",
"XXXXXXXXXXXXXXXXXXXXXXXXXXXXXXXX",
".XXXXXXXX..XXXXXXXXXXXXXXXXXXXXX",
"XXXXXXXXX..XXXXXXXXXXXXXX..XXXXX",
"XXooXXXXXXXXXXXXXXXXXXXXX..XXXoo",
"XXooXXXXXXXXXXXXXXXXXXXXXXXXXXoo",
" XXXXXXXXXXXXoXXXXXXXXXXXXXXXXXX",
"XXXXXXXXXXXXXXXXX.XXXXXXXXXXXXXX"
};
