/* XPM */
static char *c7c1afa92f234bd583edffc7337f4bdckigOHx4iDnBuW2Gj[] = {
/* columns rows colors chars-per-pixel */
"64 64 4 1 ",
"  c #FFC33C",
". c #FFCD5A",
"X c #FFD778",
"o c #FFE096",
/* pixels */
"XXXXXXXXXXXXXXXXXX....XXXXXXXXXXXXXXXXXXXXXXXX..XXXXXXXXXXXXXXXX",
"XXXXXXXXXXXXXXXXXX....XXXXXXXXXXXXXXXXXXXXXXXX..XXXXXXXXXXXXXXXX",
"XXXXXXXXXXXXXXXXXX....XXXXXXooXXXXXXXXXXXXXXXXXXXXXXooooXXXXXXXX",
"XXXXXXXXXXXXXXXXXX....XXXXXXooXXXXXXXXXXXXXXXXXXXXXXooooXXXXXXXX",
"    XXXXXXooXXXXXXXXXXXXXXXXXXXXXXXXXXXXXXXX  XXXXXXooooXXXXXXXX",
"    XXXXXXooXXXXXXXXXXXXXXXXXXXXXXXXXXXXXXXX  XXXXXXooooXXXXXXXX",
"    XXXXXXXXXXXXXXXXXXXXXXXXXXXXXXXXXXXXXXXXXXXXXXXXXXXXXXXXXXXX",
"    XXXXXXXXXXXXXXXXXXXXXXXXXXXXXXXXXXXXXXXXXXXXXXXXXXXXXXXXXXXX",
"XXXXXXXXXXXXXXXXXXXXXXXXXXXXXXXXXXXXXXXXXXXXXXXXXXXXXXXXXX..XXXX",
"XXXXXXXXXXXXXXXXXXXXXXXXXXXXXXXXXXXXXXXXXXXXXXXXXXXXXXXXXX..XXXX",
"XXXXXXXXXX..XXXXXXXXXXXXXXXXXXXXXXXXXX..XXXXXXXXXXXXXXXXXXXXXXXX",
"XXXXXXXXXX..XXXXXXXXXXXXXXXXXXXXXXXXXX..XXXXXXXXXXXXXXXXXXXXXXXX",
"XXXXXXXXXXXXXXXXXXXXXXXXXXXXXXXXXXXXXXXXXXXXXXXXXXXXXXXXXXXXXXXX",
"XXXXXXXXXXXXXXXXXXXXXXXXXXXXXXXXXXXXXXXXXXXXXXXXXXXXXXXXXXXXXXXX",
"XXXXXXXXXXXXXXXXXXXXXXXX    XXXXXXXXXXXXXXXXXXXX    XXXXXXXXXXXX",
"XXXXXXXXXXXXXXXXXXXXXXXX    XXXXXXXXXXXXXXXXXXXX    XXXXXXXXXXXX",
"XXXXXXXXXXXXXXXXXXXXXXXX    XXXXXXXXXXXXXXXXXXXX    XXXXXXXXXX  ",
"XXXXXXXXXXXXXXXXXXXXXXXX    XXXXXXXXXXXXXXXXXXXX    XXXXXXXXXX  ",
"XXXXXXXXXXXXXXXXXXXXXXXXXXXXXXXXXXXXXXXXXXXXXXXXXXXXXXXXXXXXXXXX",
"XXXXXXXXXXXXXXXXXXXXXXXXXXXXXXXXXXXXXXXXXXXXXXXXXXXXXXXXXXXXXXXX",
"XXXXXXXXXXXXXXXXXXXXXXXXXXXXXXXXXXXXooooXXXXXXXXXXXXXXXXXXXXXXXX",
"XXXXXXXXXXXXXXXXXXXXXXXXXXXXXXXXXXXXooooXXXXXXXXXXXXXXXXXXXXXXXX",
"XXXXXXXXooooXXXXXXXXXXXXXXXXXXXXXXXXooooXXXXXXXXXXXXXXXXXXXXXXXX",
"XXXXXXXXooooXXXXXXXXXXXXXXXXXXXXXXXXooooXXXXXXXXXXXXXXXXXXXXXXXX",
"XXXXXXXXooooXXXXXXXXXXXXXXXXXXXXXXXXXXXXXXXXXXXXXXXXXXXXXXXXooXX",
"XXXXXXXXooooXXXXXXXXXXXXXXXXXXXXXXXXXXXXXXXXXXXXXXXXXXXXXXXXooXX",
"XXXXXXXXXXXXXXXXXXXXXXXXXXXXXXXXXXXXXXXXXXXXXXXXXX....XXXXXXXXXX",
"XXXXXXXXXXXXXXXXXXXXXXXXXXXXXXXXXXXXXXXXXXXXXXXXXX....XXXXXXXXXX",
"XXXXXXXXXXXXXXXX....XXXXXXXXXXXXXXXXXXXXXXXXXXXXXX....XXXXXXXXXX",
"XXXXXXXXXXXXXXXX....XXXXXXXXXXXXXXXXXXXXXXXXXXXXXX....XXXXXXXXXX",
"XXXXXXXXXXXXXXXX....XXXXXXXXXXXXXXXXXXXXXXXXXXXXXXXXXXXXXXXXXXXX",
"XXXXXXXXXXXXXXXX....XXXXXXXXXXXXXXXXXXXXXXXXXXXXXXXXXXXXXXXXXXXX",
"XXXXXXXXXXXXXXXXXXXXXXXXXXXXXXXXXXXXXXXXXXXXXXXXXXXXXXXXXXXXXXXX",
"XXXXXXXXXXXXXXXXXXXXXXXXXXXXXXXXXXXXXXXXXXXXXXXXXXXXXXXXXXXXXXXX",
"XX..XXXXXXXXXXXXXXXXXXXXXXXXXXXXXXXXXXXXXXXXXXXXXXXXXXXXXXXXXXXX",
"XX..XXXXXXXXXXXXXXXXXXXXXXXXXXXXXXXXXXXXXXXXXXXXXXXXXXXXXXXXXXXX",
"XXXXXXXXXXXXXXXXXXXXXXXXXX..XXXXXXXXXXXXXXXXXXXXXXXXXXXXXXXXXXXX",
"XXXXXXXXXXXXXXXXXXXXXXXXXX..XXXXXXXXXXXXXXXXXXXXXXXXXXXXXXXXXXXX",
"XXXXXXXXXXXXXXXXXXXXXXXXXXXXXXXXXXXXXXXXXXXXXXXXXXXXXXXXXXXXXXXX",
"XXXXXXXXXXXXXXXXXXXXXXXXXXXXXXXXXXXXXXXXXXXXXXXXXXXXXXXXXXXXXXXX",
"XXXXXXXXXXXXXXXXXXXXXXXXXXXXXXXXXXXXXXXXXX..XXXXXXXXXXXXXXXXXXXX",
"XXXXXXXXXXXXXXXXXXXXXXXXXXXXXXXXXXXXXXXXXX..XXXXXXXXXXXXXXXXXXXX",
"XXXXXXXXXXXXXXXXXXXXXXXXXXXXXXXXXXXXXXXXXXXXXXXXXXXXXXXXXXXXXXXX",
"XXXXXXXXXXXXXXXXXXXXXXXXXXXXXXXXXXXXXXXXXXXXXXXXXXXXXXXXXXXXXXXX",
"XXXXXXXX    XXXXXXXXXXXXXXXXXXXXXXXXXXXXXXXXXXXXXXXXXXXXXXXX    ",
"XXXXXXXX    XXXXXXXXXXXXXXXXXXXXXXXXXXXXXXXXXXXXXXXXXXXXXXXX    ",
"XXXXXXXX    XXXXXXXXXXXXXXXXXXXXXXooooXXXXXXXXXXXXXXXXXXXXXX    ",
"XXXXXXXX    XXXXXXXXXXXXXXXXXXXXXXooooXXXXXXXXXXXXXXXXXXXXXX    ",
"XXXXXXXXXXXXXXXXXXXXXXXXXXXXXXXXXXooooXXXXXXXXXXXXXXXXXXXXXXXXXX",
"XXXXXXXXXXXXXXXXXXXXXXXXXXXXXXXXXXooooXXXXXXXXXXXXXXXXXXXXXXXXXX",
"XXXXXXXXXXXXXXXXXXXXXXXXXXXXXXXXXXXXXXXXXXXXXXXXXXXXXXXXXXXXXXXX",
"XXXXXXXXXXXXXXXXXXXXXXXXXXXXXXXXXXXXXXXXXXXXXXXXXXXXXXXXXXXXXXXX",
"..XXXXXXXXXXXXXXXX....XXXXXXXXXXXXXXXXXXXXXXXXXXXXXXXXXXXXXXXXXX",
"..XXXXXXXXXXXXXXXX....XXXXXXXXXXXXXXXXXXXXXXXXXXXXXXXXXXXXXXXXXX",
"XXXXXXXXXXXXXXXXXX....XXXXXXXXXXXXXXXXXXXXXXXXXXXX....XXXXXXXXXX",
"XXXXXXXXXXXXXXXXXX....XXXXXXXXXXXXXXXXXXXXXXXXXXXX....XXXXXXXXXX",
"XXXXooooXXXXXXXXXXXXXXXXXXXXXXXXXXXXXXXXXXXXXXXXXX....XXXXXXoooo",
"XXXXooooXXXXXXXXXXXXXXXXXXXXXXXXXXXXXXXXXXXXXXXXXX....XXXXXXoooo",
"XXXXooooXXXXXXXXXXXXXXXXXXXXXXXXXXXXXXXXXXXXXXXXXXXXXXXXXXXXoooo",
"XXXXooooXXXXXXXXXXXXXXXXXXXXXXXXXXXXXXXXXXXXXXXXXXXXXXXXXXXXoooo",
"  XXXXXXXXXXXXXXXXXXXXXXXXooXXXXXXXXXXXXXXXXXXXXXXXXXXXXXXXXXXXX",
"  XXXXXXXXXXXXXXXXXXXXXXXXooXXXXXXXXXXXXXXXXXXXXXXXXXXXXXXXXXXXX",
"XXXXXXXXXXXXXXXXXXXXXXXXXXXXXXXXXX..XXXXXXXXXXXXXXXXXXXXXXXXXXXX",
"XXXXXXXXXXXXXXXXXXXXXXXXXXXXXXXXXX..XXXXXXXXXXXXXXXXXXXXXXXXXXXX"
};
