/* XPM */
static char *af4122926dcd4b3ed8dc7f1c16c08b6fktGqOrKJzvq0XasU[] = {
/* columns rows colors chars-per-pixel */
"32 32 27 1 ",
"  c black",
". c #3D3F44",
"X c #44464C",
"o c #4B4D54",
"O c #52545C",
"+ c #595B64",
"@ c #676974",
"# c #6E707C",
"$ c #794282",
"% c #757784",
"& c #9551A0",
"* c #9E57AA",
"= c #A461AF",
"- c #B075B9",
"; c #868996",
": c #8E919D",
"> c #9699A4",
", c #8CB4FF",
"< c #A2F6CB",
"1 c #B0F7D3",
"2 c #B0F7DF",
"3 c #B0F7EF",
"4 c #BEF8F2",
"5 c #C6C9CE",
"6 c #CED1D5",
"7 c #CCF9F5",
"8 c white",
/* pixels */
"33333333333348211111111122333333",
"33333333338221111111122233233333",
"33333348281111111121232333333333",
"3342<82<111112221223333333333334",
"828<1111111221122333333333333378",
"<1111211222211333333333333338821",
"11111221122332333333333348<21111",
"12111212333     33333348<1111112",
"122233  33 OOooX  3728<211212222",
"23333 XO  OoXXXXXX  111111112333",
"333333 XXO XXXXXXXX  11121323323",
"3333333 XXO XXXXXXXXX 2122333333",
"33333334 XXoOXXXXXXXXX 333333333",
"3344      $XXOXX XXXXX   3333333",
"882 %#6--=*&XXoX  XXXXXX   33382",
"<121 ##86565:XXXXXXXXXXXXo 48211",
"11112  @@@@@>>XXXXXXXXXXXXX 1111",
"1111112     >>>XXXXXXXXXX X 1121",
"112223333 + >>>>XXXXXXXXX   2222",
"322333333 oX>>>>Xo XXXXXX 222333",
"23333333 oX>>>>>XX+ XXXXX 223333",
"33333381 XX>>>>>>XO XXXX. 123333",
"3333388 oX>:18:>>Xo+ XXX.1883333",
"348888  XX88888;:>X++ ..88333334",
"8<111888888,,8288:XXo 1883333382",
"<11118,,818,,8888888Xo 883482811",
"111212233,,,,,88,,,88X  88811111",
"11323333333,,,,,,8,8888888111222",
"23333233333,,,,,,,,,28,1,8111222",
"32333333333,3,,,,,82<11121211233",
"3333333333,33,388111111121222333",
"33333333333348211111111222333333"
};
