/* XPM */
static char *caa7477bf1a44cc4e3d6a219e4eb75f3OAoptGvlimVa4mUV[] = {
/* columns rows colors chars-per-pixel */
"32 32 22 1 ",
"  c None",
". c black",
"X c #3D3F44",
"o c #44464C",
"O c #4B4D54",
"+ c #52545C",
"@ c #595B64",
"# c #676974",
"$ c #6E707C",
"% c #794282",
"& c #757784",
"* c #9551A0",
"= c #9E57AA",
"- c #A461AF",
"; c #B075B9",
": c #868996",
"> c #8E919D",
", c #9699A4",
"< c #B0F7D3",
"1 c #C6C9CE",
"2 c #CED1D5",
"3 c white",
/* pixels */
"                                ",
"                                ",
"                                ",
"                                ",
"                                ",
"                                ",
"                                ",
"           .....                ",
"      ..  .++OOo..              ",
"     .o+..+Ooooooo..            ",
"      .oo+.oooooooo..           ",
"       .oo+.ooooooooo.          ",
"        .ooO+ooooooooo.         ",
"    ......%oo+oo.ooooo...       ",
"   .&$2;;-=*ooOo..oooooo...     ",
"    .$$32121>ooooooooooooO.     ",
"     ..#####,,ooooooooooooo.    ",
"       .....,,,oooooooooo.o.    ",
"         .@.,,,,ooooooooo...    ",
"         .Oo,,,,oO.oooooo.      ",
"        .Oo,,,,,oo@.ooooo.      ",
"      3<.oo,,,,,,o+.ooooX.<     ",
"     33.Oo,><3>,,oO@.oooX<33    ",
"    33..oo33333:>,o@@.XX33      ",
"     333333  3 33>ooO.<33       ",
"     3  3 3  3333333oO.33       ",
"              33   33o..33      ",
"                 3 3333333      ",
"                     33  3      ",
"                                ",
"                                ",
"                                "
};
