/* XPM */
static char *_81f5297b46e4b6de6ecccde5fc0e723tmmF3JsD1vpMewS7[] = {
/* columns rows colors chars-per-pixel */
"32 32 22 1 ",
"  c None",
". c black",
"X c #3D3F44",
"o c #44464C",
"O c #4B4D54",
"+ c #52545C",
"@ c #595B64",
"# c #676974",
"$ c #6E707C",
"% c #794282",
"& c #757784",
"* c #9551A0",
"= c #9E57AA",
"- c #A461AF",
"; c #B075B9",
": c #868996",
"> c #8E919D",
", c #9699A4",
"< c #B0F7D3",
"1 c #C6C9CE",
"2 c #CED1D5",
"3 c white",
/* pixels */
"                                ",
"                                ",
"                                ",
"                                ",
"                                ",
"                                ",
"                                ",
"                .....           ",
"              ..oOO++.  ..      ",
"            ..ooooooO+..+o.     ",
"           ..oooooooo.+oo.      ",
"          .ooooooooo.+oo.       ",
"         .ooooooooo+Ooo.        ",
"       ...ooooo.oo+oo%......    ",
"     ...oooooo..oOoo*=-;;2$&.   ",
"     .Ooooooooooooo>12123$$.    ",
"    .ooooooooooooo,,#####..     ",
"    .o.oooooooooo,,,.....       ",
"    ...ooooooooo,,,,.@.         ",
"      .oooooo.Oo,,,,oO.         ",
"      .ooooo.@oo,,,,,oO.        ",
"     <.Xoooo.+o,,,,,,oo.<3      ",
"    33<Xooo.@Oo,,>3<>,oO.33     ",
"      33XX.@@o,>:33333oo..33    ",
"       33<.Ooo>33 3  333333     ",
"       33.Oo3333333  3 3  3     ",
"      33..o33   33              ",
"      3333333 3                 ",
"      3  33                     ",
"                                ",
"                                ",
"                                "
};
