/* XPM */
static char *_e1b1cd1249746ef837785da7201298ewm6qUjlkS0oyCRlM[] = {
/* columns rows colors chars-per-pixel */
"64 64 27 1 ",
"  c black",
". c #3D3F44",
"X c #44464C",
"o c #4B4D54",
"O c #52545C",
"+ c #595B64",
"@ c #676974",
"# c #6E707C",
"$ c #794282",
"% c #757784",
"& c #9551A0",
"* c #9E57AA",
"= c #A461AF",
"- c #B075B9",
"; c #868996",
": c #8E919D",
"> c #9699A4",
", c #8CB4FF",
"< c #A2F6CB",
"1 c #B0F7D3",
"2 c #B0F7DF",
"3 c #B0F7EF",
"4 c #BEF8F2",
"5 c #C6C9CE",
"6 c #CED1D5",
"7 c #CCF9F5",
"8 c white",
/* pixels */
"3333333333333333333333334488221111111111111111112222333333333333",
"3333333333333333333333334488221111111111111111112222333333333333",
"3333333333333333333388222211111111111111112222223333223333333333",
"3333333333333333333388222211111111111111112222223333223333333333",
"3333333333334488228811111111111111112211223322333333333333333333",
"3333333333334488228811111111111111112211223322333333333333333333",
"33334422<<8822<<111111111122222211222233333333333333333333333344",
"33334422<<8822<<111111111122222211222233333333333333333333333344",
"882288<<11111111111111222211112222333333333333333333333333337788",
"882288<<11111111111111222211112222333333333333333333333333337788",
"<<11111111221111222222221111333333333333333333333333333388882211",
"<<11111111221111222222221111333333333333333333333333333388882211",
"1111111111222211112222333322333333333333333333334488<<2211111111",
"1111111111222211112222333322333333333333333333334488<<2211111111",
"1122111111221122333333          3333333333334488<<11111111111122",
"1122111111221122333333          3333333333334488<<11111111111122",
"112222223333    3333  OOOOooooXX    33772288<<221111221122222222",
"112222223333    3333  OOOOooooXX    33772288<<221111221122222222",
"2233333333  XXOO    OOooXXXXXXXXXXXX    111111111111111122333333",
"2233333333  XXOO    OOooXXXXXXXXXXXX    111111111111111122333333",
"333333333333  XXXXOO  XXXXXXXXXXXXXXXX    1111112211332233332233",
"333333333333  XXXXOO  XXXXXXXXXXXXXXXX    1111112211332233332233",
"33333333333333  XXXXOO  XXXXXXXXXXXXXXXXXX  22112222333333333333",
"33333333333333  XXXXOO  XXXXXXXXXXXXXXXXXX  22112222333333333333",
"3333333333333344  XXXXooOOXXXXXXXXXXXXXXXXXX  333333333333333333",
"3333333333333344  XXXXooOOXXXXXXXXXXXXXXXXXX  333333333333333333",
"33334444            $$XXXXOOXXXX  XXXXXXXXXX      33333333333333",
"33334444            $$XXXXOOXXXX  XXXXXXXXXX      33333333333333",
"888822  %%##66----==**&&XXXXooXX    XXXXXXXXXXXX      3333338822",
"888822  %%##66----==**&&XXXXooXX    XXXXXXXXXXXX      3333338822",
"<<112211  ####8866556655::XXXXXXXXXXXXXXXXXXXXXXXXoo  4488221111",
"<<112211  ####8866556655::XXXXXXXXXXXXXXXXXXXXXXXXoo  4488221111",
"1111111122    @@@@@@@@@@>>>>XXXXXXXXXXXXXXXXXXXXXXXXXX  11111111",
"1111111122    @@@@@@@@@@>>>>XXXXXXXXXXXXXXXXXXXXXXXXXX  11111111",
"11111111111122          >>>>>>XXXXXXXXXXXXXXXXXXXX  XX  11112211",
"11111111111122          >>>>>>XXXXXXXXXXXXXXXXXXXX  XX  11112211",
"111122222233333333  ++  >>>>>>>>XXXXXXXXXXXXXXXXXX      22222222",
"111122222233333333  ++  >>>>>>>>XXXXXXXXXXXXXXXXXX      22222222",
"332222333333333333  ooXX>>>>>>>>XXoo  XXXXXXXXXXXX  222222333333",
"332222333333333333  ooXX>>>>>>>>XXoo  XXXXXXXXXXXX  222222333333",
"2233333333333333  ooXX>>>>>>>>>>XXXX++  XXXXXXXXXX  222233333333",
"2233333333333333  ooXX>>>>>>>>>>XXXX++  XXXXXXXXXX  222233333333",
"3333333333338811  XXXX>>>>>>>>>>>>XXOO  XXXXXXXX..  112233333333",
"3333333333338811  XXXX>>>>>>>>>>>>XXOO  XXXXXXXX..  112233333333",
"33333333338888  ooXX>>::1188::>>>>XXoo++  XXXXXX..11888833333333",
"33333333338888  ooXX>>::1188::>>>>XXoo++  XXXXXX..11888833333333",
"334488888888    XXXX8888888888;;::>>XX++++  ....8888333333333344",
"334488888888    XXXX8888888888;;::>>XX++++  ....8888333333333344",
"88<<111111888888888888,,,,88228888::XXXXoo  11888833333333338822",
"88<<111111888888888888,,,,88228888::XXXXoo  11888833333333338822",
"<<1111111188,,,,881188,,,,88888888888888XXoo  888833448822881111",
"<<1111111188,,,,881188,,,,88888888888888XXoo  888833448822881111",
"111111221122223333,,,,,,,,,,8888,,,,,,8888XX    8888881111111111",
"111111221122223333,,,,,,,,,,8888,,,,,,8888XX    8888881111111111",
"1111332233333333333333,,,,,,,,,,,,88,,88888888888888111111222222",
"1111332233333333333333,,,,,,,,,,,,88,,88888888888888111111222222",
"2233333333223333333333,,,,,,,,,,,,,,,,,,2288,,11,,88111111222222",
"2233333333223333333333,,,,,,,,,,,,,,,,,,2288,,11,,88111111222222",
"3322333333333333333333,,33,,,,,,,,,,8822<<1111112211221111223333",
"3322333333333333333333,,33,,,,,,,,,,8822<<1111112211221111223333",
"33333333333333333333,,3333,,338888111111111111112211222222333333",
"33333333333333333333,,3333,,338888111111111111112211222222333333",
"3333333333333333333333334488221111111111111111222222333333333333",
"3333333333333333333333334488221111111111111111222222333333333333"
};
