/* XPM */
static char *_e8de901db6744c39669d06429632755ldo3kVdqzVyguu72[] = {
/* columns rows colors chars-per-pixel */
"64 64 21 1 ",
"  c #008332",
". c #F9E600",
"X c #80BC61",
"o c #FCEE48",
"O c #D5EE69",
"+ c #D5EE6F",
"@ c #D5EE77",
"# c #FFF690",
"$ c #D1F6AD",
"% c #D8F6B1",
"& c #D8F6B7",
"* c #D8F6BF",
"= c #A2F6CB",
"- c #B0F7D3",
"; c #B0F7DF",
": c #B0F7EF",
"> c #BEF8F2",
", c #DFF7C1",
"< c #FFFAC7",
"1 c #CCF9F5",
"2 c white",
/* pixels */
"::::::::********XX::##::>>22;;------------  --XX&&&&****::::::::",
"::::::::********XX::##::>>22;;------------  --XX&&&&****::::::::",
"::::::::::********##  ;;;;----------------  XX&&****&&::::::::::",
"::::::::::********##  ;;;;----------------  XX&&****&&::::::::::",
"::::::::::**##XX&&XX----------------;;--;;::XX**##XX**::::::::::",
"::::::::::**##XX&&XX----------------;;--;;::XX**##XX**::::::::::",
"::::>>;;==22XXXXXXXX------;;;;;;--;;;;::::::XXXXXXXX::::::::::>>",
"::::>>;;==22XXXXXXXX------;;;;;;--;;;;::::::XXXXXXXX::::::::::>>",
"22;;22==--  XXXXXXXX  ;;;;----;;;;::::::::  XXXXXXXX  ::::::1122",
"22;;22==--  XXXXXXXX  ;;;;----;;;;::::::::  XXXXXXXX  ::::::1122",
"==--######    XXXX&&XX;;----::::::::::::::oo**XXXX  ######  ;;--",
"==--######    XXXX&&XX;;----::::::::::::::oo**XXXX  ######  ;;--",
"----        ..XX%%&&XX::::;;::::::::::::::XX****XX..        ----",
"----        ..XX%%&&XX::::;;::::::::::::::XX****XX..        ----",
"%%;;--  ..      ****XX::::::::::::::::::::XX,,<<      ..  ----&&",
"%%;;--  ..      ****XX::::::::::::::::::::XX,,<<      ..  ----&&",
"%%&&;;          ****XX**::::::::::::::11&&XX$$&&          ;;&&&&",
"%%&&;;          ****XX**::::::::::::::11&&XX$$&&          ;;&&&&",
"&&****          ::**XX**::::::::22;;22;;%%XX%%--          ******",
"&&****          ::**XX**::::::::22;;22;;%%XX%%--          ******",
"******          ..**XX**::>>>>;;--------%%XX%%##          **&&**",
"******          ..**XX**::>>>>;;--------%%XX%%##          **&&**",
"******XX..::      22XX&&$$2222;;------&&&&XX;;    ..::..XX******",
"******XX..::      22XX&&$$2222;;------&&&&XX;;    ..::..XX******",
"::****XXXX::::    --XX%%%%------------%%%%XX;;    ::::XXXX****::",
"::****XXXX::::    --XX%%%%------------%%%%XX;;    ::::XXXX****::",
"::::,,XXXX2222    --XX%%%%--;;;;--;;;;&&&&XX::    ::::XXXX**::::",
"::::,,XXXX2222    --XX%%%%--;;;;--;;;;&&&&XX::    ::::XXXX**::::",
"2222;;XXXX%%--    --  &&%%;;;;;;--::;;****  ::    ::**XXXX::22;;",
"2222;;XXXX%%--    --  &&%%;;;;;;--::;;****  ::    ::**XXXX::22;;",
"==--;;  XX%%&&        &&%%**::::;;::******        ****XX  ;;----",
"==--;;  XX%%&&        &&%%**::::;;::******        ****XX  ;;----",
"------    &&&&XX  ;;  ******::::::::******..::  XX<<<<    ------",
"------    &&&&XX  ;;  ******::::::::******..::  XX<<<<    ------",
"------    --XXXX  ::  ::****::::::::****::  22  XXXX--    --;;--",
"------    --XXXX  ::  ::****::::::::****::  22  XXXX--    --;;--",
"%%--;;    ..XXooXX::  ::****::::::::&&<<==  --XXooXX##  ..;;;;&&",
"%%--;;    ..XXooXX::  ::****::::::::&&<<==  --XXooXX##  ..;;;;&&",
"**&&;;::      XXXX##  ::******>>22&&<<%%--  XXXXXX      ;;::****",
"**&&;;::      XXXX##  ::******>>22&&<<%%--  XXXXXX      ;;::****",
"&&****::    ::  XXXX::;;22<<$$--==%%%%----;;ooXX  ;;    ::******",
"&&****::    ::  XXXX::;;22<<$$--==%%%%----;;ooXX  ;;    ::******",
"********    ::  XX<<&&;;--%%&&----%%%%--;;%%&&XX  ::    ********",
"********    ::  XX<<&&;;--%%&&----%%%%--;;%%&&XX  ::    ********",
"::******XX  22    %%%%--++OOOOOOOOOO++OO;;&&&&    ::  XX******::",
"::******XX  22    %%%%--++OOOOOOOOOO++OO;;&&&&    ::  XX******::",
"::>>22<<XXXX--------OOOO++OOOO++++++@@@@++++::::::::XXXX**::::>>",
"::>>22<<XXXX--------OOOO++OOOO++++++@@@@++++::::::::XXXX**::::>>",
"22==----XXXX%%&&--OOOO++OO++++@@@@++@@@@@@@@@@::****XXXX::::22;;",
"22==----XXXX%%&&--OOOO++OO++++@@@@++@@@@@@@@@@::****XXXX::::22;;",
"==----##  XX%%&&&&OO++++++@@@@@@@@++@@@@@@@@@@******XX  ..22----",
"==----##  XX%%&&&&OO++++++@@@@@@@@++@@@@@@@@@@******XX  ..22----",
"------    ..;;****@@++@@@@@@@@@@@@@@@@@@@@@@@@**<<;;      ------",
"------    ..;;****@@++@@@@@@@@@@@@@@@@@@@@@@@@**<<;;      ------",
"----::    ::::::::::@@@@@@@@@@@@@@@@@@@@@@@@;;22--;;--    ;;;;;;",
"----::    ::::::::::@@@@@@@@@@@@@@@@@@@@@@@@;;22--;;--    ;;;;;;",
";;::::    ;;::::::::::::::::::::::::::11;;22----------    ;;;;;;",
";;::::    ;;::::::::::::::::::::::::::11;;22----------    ;;;;;;",
"::;;::::::::::::::::::::::::::::::>>22;;==------;;--;;----;;::::",
"::;;::::::::::::::::::::::::::::::>>22;;==------;;--;;----;;::::",
"::::::::::::::::::::::::::::::2222--------------;;--;;;;;;::::::",
"::::::::::::::::::::::::::::::2222--------------;;--;;;;;;::::::",
"::::::::::::::::::::::::>>22;;----------------;;;;;;::::::::::::",
"::::::::::::::::::::::::>>22;;----------------;;;;;;::::::::::::"
};
