/* XPM */
static char *_e01583102af432491fdcf30e438e14eZZUWSaasvkBxNESQ[] = {
/* columns rows colors chars-per-pixel */
"32 32 10 1 ",
"  c #F9E600",
". c #FFEE18",
"X c #FFF690",
"o c #A2F6CB",
"O c #B0F7D3",
"+ c #B0F7DF",
"@ c #B0F7EF",
"# c #BEF8F2",
"$ c #CCF9F5",
"% c white",
/* pixels */
"@@@@@@@@.@X@#%+OOOOOO.O.++@@@@@@",
"@@@@@@@@@X.++OOOOOOOO..+@@+@@@@@",
"@@@@@@X.+.OOOOOOOO+O+@.@X.@@@@@@",
"@@#+o%....OOO+++O++@@@....@@@@@#",
"%+%oO......++OO++@@@@......@@@$%",
"oOXXX....+.+OO@@@@@@@ @...XXX.+O",
"OO.... .O+.@@+@@@@@@@.@@. ....OO",
"O+O. ...@@.@@@@@@@@@@.#%... .OO+",
"O++.....@@.@@@@@@@@$+.o+.....+++",
"+@@.....@@.@@@@@%+%+O.OO.....@@@",
"@@@..... @.@@##+OOOOO.OX.....@+@",
"@@@. @...%.+o%%+OOO++.+.. @ .@@@",
"@@@..@@..O.OOOOOOOOOO.+..@@..@@@",
"@@#..%%..O.OOO++O++++.@..@@..@@@",
"%%+..OO..O.+O+++O@+@@.@..@@..@%+",
"oO+..O+....+O@@@+@@@@....@@..+OO",
"OOO..++..+.@@@@@@@@@@ @..%%..OOO",
"OOO..O...@.@@@@@@@@@@.%...O..O+O",
"OO+.. . .@.@@@@@@@+%o.O. .X. +++",
"@++@.....X.@@@@#%+%OO.......+@@@",
"+@@@..@...@+%%oOoOOOO+ ..+..@@@@",
"@@@@..@..%++OO+OOOOO+O+..@..@@@@",
"@@@@..%..OOO+OOOOO+O+++..@..@@@@",
"@#%%..OOOOOO+OO+++@@++@@@@..@@@#",
"%oOO..O+OOO+O++@@+@@@@@@@@..@@%+",
"oOOX..O++O+++@@@@+@@@@@@@@.. %OO",
"OOO.. +@@@+@@@@@@@@@@@@@%+...OOO",
"OO@..@@@@@@@@@@@@@@@@@+%O+O..+++",
"+@@..+@@@@@@@@@@@@@$+%OOOOO..+++",
"@+@@@@@@@@@@@@@@@#%+oOOO+O+OO+@@",
"@@@@@@@@@@@@@@@%%OOOOOOO+O+++@@@",
"@@@@@@@@@@@@#%+OOOOOOOO+++@@@@@@"
};
