/* XPM */
static char *_cd01678cea248619227ff73134d0e686ieFvH9rhKKkQz9O[] = {
/* columns rows colors chars-per-pixel */
"32 32 21 1 ",
"  c #008332",
". c #F9E600",
"X c #80BC61",
"o c #FCEE48",
"O c #D5EE69",
"+ c #D5EE6F",
"@ c #D5EE77",
"# c #FFF690",
"$ c #D1F6AD",
"% c #D8F6B1",
"& c #D8F6B7",
"* c #D8F6BF",
"= c #A2F6CB",
"- c #B0F7D3",
"; c #B0F7DF",
": c #B0F7EF",
"> c #BEF8F2",
", c #DFF7C1",
"< c #FFFAC7",
"1 c #CCF9F5",
"2 c white",
/* pixels */
"::::****X:#:>2;------ -X&&**::::",
":::::****# ;;-------- X&**&:::::",
":::::*#X&X--------;-;:X*#X*:::::",
"::>;=2XXXX---;;;-;;:::XXXX:::::>",
"2;2=- XXXX ;;--;;:::: XXXX :::12",
"=-###  XX&X;--:::::::o*XX ### ;-",
"--    .X%&X::;:::::::X**X.    --",
"%;- .   **X::::::::::X,<   . --&",
"%&;     **X*:::::::1&X$&     ;&&",
"&**     :*X*::::2;2;%X%-     ***",
"***     .*X*:>>;----%X%#     *&*",
"***X.:   2X&$22;---&&X;  .:.X***",
":**XX::  -X%%------%%X;  ::XX**:",
"::,XX22  -X%%-;;-;;&&X:  ::XX*::",
"22;XX%-  - &%;;;-:;** :  :*XX:2;",
"=-; X%&    &%*::;:***    **X ;--",
"---  &&X ; ***::::***.: X<<  ---",
"---  -XX : :**::::**: 2 XX-  -;-",
"%-;  .XoX: :**::::&<= -XoX# .;;&",
"*&;:   XX# :***>2&<%- XXX   ;:**",
"&**:  : XX:;2<$-=%%--;oX ;  :***",
"****  : X<&;-%&--%%-;%&X :  ****",
":***X 2  %%-+OOOOO+O;&&  : X***:",
":>2<XX----OO+OO+++@@++::::XX*::>",
"2=--XX%&-OO+O++@@+@@@@@:**XX::2;",
"=--# X%&&O+++@@@@+@@@@@***X .2--",
"---  .;**@+@@@@@@@@@@@@*<;   ---",
"--:  :::::@@@@@@@@@@@@;2-;-  ;;;",
";::  ;:::::::::::::1;2-----  ;;;",
":;:::::::::::::::>2;=---;-;--;::",
":::::::::::::::22-------;-;;;:::",
"::::::::::::>2;--------;;;::::::"
};
