/* XPM */
static char *_74004a680d7402c86a027f3058fa28acceaakISUAeFbR6V[] = {
/* columns rows colors chars-per-pixel */
"32 32 10 1 ",
"  c #F9E600",
". c #FFEE18",
"X c #FFF690",
"o c #A2F6CB",
"O c #B0F7D3",
"+ c #B0F7DF",
"@ c #B0F7EF",
"# c #BEF8F2",
"$ c #CCF9F5",
"% c white",
/* pixels */
"@@@@@@@@@@@@#%+OOOOOOOOO++@@@@@@",
"@@@@@@@@@@%++OOOOOOOO+++@@+@@@@@",
"@@@@@@#%+%OOOOOOOO+O+@+@@@@@@@@@",
"@@#+o%+oOOOOO+++O++@@@@@@@@@@@@#",
"%+%oOOOOOOO++OO++@@@@@@@@@@@@@$%",
"oOXXX.OO++++OO@@@@@@@@@@@@XXX.+O",
"OO....+OO++@@+@@@@@@@@@@#%....OO",
"O+O..+O+@@@@@@@@@@@@@@#%oOO..OO+",
"O++..@@@@X.@@.@X.@.$+X.+OO+..+++",
"+@@...@@@..@@@X...%+O..OOO...@@@",
"@@@...@@....@#.+O.OO....+O...@+@",
"@@@. ..........+O.......... .@@@",
"@@@..@@#+. OOO....OOO. @@@@..@@@",
"@@#..%%+o..OOO+. ++++..@@@@..@@@",
"%%+..OOOO..+O++..@+@@..@@@@..@%+",
"oO+..O+OO..+O@@..@@@@..@@@@..+OO",
"OOO..++O+.. @@@..@@@X..@#%%..OOO",
"OOO..O+@@...@@@..@@@.. o%OO..O+O",
"OO+.. @@@@..@@@..@+%..OOOOX. +++",
"@++@..@@@@..@@@..+%O..O+O+..+@@@",
"+@@@..@@@@..%%o..OOO..+OO+..@@@@",
"@@@@...@#%...O+..OO...+@@...@@@@",
"@@@@. ...O...OO..O+...+... .@@@@",
"@#%%..OO................@@..@@@#",
"%oOO..O+OO ..++. +@.. @@@@..@@%+",
"oOOX..O++O..+@@..+@@..@@@@.. %OO",
"OOO.. +@@@..@.@..@.@..@@%+...OOO",
"OO@..@@@@@..@@X...@@..+%O+O..+++",
"+@@..+@@@@..@@.@@ @$..OOOOO..+++",
"@+@@@@@@@@@@@@@@@#%+oOOO+O+OO+@@",
"@@@@@@@@@@@@@@@%%OOOOOOO+O+++@@@",
"@@@@@@@@@@@@#%+OOOOOOOO+++@@@@@@"
};
