/* XPM */
static char *_490f9628b164a588dd989231a6a2fdaaNCD6Ek5CTbLwGFJ[] = {
/* columns rows colors chars-per-pixel */
"64 64 10 1 ",
"  c #008332",
". c #F9E600",
"X c #FFF690",
"o c #A2F6CB",
"O c #B0F7D3",
"+ c #B0F7DF",
"@ c #B0F7EF",
"# c #BEF8F2",
"$ c #CCF9F5",
"% c white",
/* pixels */
"@@@@@@@@@@@@@@@@@@@@@@@@##%%++OOOOOOOOOOOOOOOOOO++++@@@@@@@@@@@@",
"@@@@@@@@@@@@@@@@@@@@@@@@##%%++OOOOOOOOOOOOOOOOOO++++@@@@@@@@@@@@",
"@@@@@@@@@@@@@@@@@@@@%%++++OOOOOOOOOOOOOOOO++++++@@@@++@@@@@@@@@@",
"@@@@@@@@@@@@@@@@@@@@%%++++OOOOOOOOOOOOOOOO++++++@@@@++@@@@@@@@@@",
"@@@@@@@@@@@@##%%++%%OOOOOOOOOOOOOOOO++OO++@@++@@@@@@@@@@@@@@@@@@",
"@@@@@@@@@@@@##%%++%%OOOOOOOOOOOOOOOO++OO++@@++@@@@@@@@@@@@@@@@@@",
"@@@@##++oo%%++ooOOOOOOOOOO++++++OO++++@@@@@@@@@@@@@@@@@@@@@@@@##",
"@@@@##++oo%%++ooOOOOOOOOOO++++++OO++++@@@@@@@@@@@@@@@@@@@@@@@@##",
"%%++%%ooOOOOOOOOOOOOOO++++OOOO++++@@@@@@@@@@@@@@@@@@@@@@@@@@$$%%",
"%%++%%ooOOOOOOOOOOOOOO++++OOOO++++@@@@@@@@@@@@@@@@@@@@@@@@@@$$%%",
"ooOOXXXXXX  OOOO++++++++OOOO@@@@@@@@@@@@@@@@@@@@@@@@XXXXXX  ++OO",
"ooOOXXXXXX  OOOO++++++++OOOO@@@@@@@@@@@@@@@@@@@@@@@@XXXXXX  ++OO",
"OOOO        ++OOOO++++@@@@++@@@@@@@@@@@@@@@@@@@@##%%        OOOO",
"OOOO        ++OOOO++++@@@@++@@@@@@@@@@@@@@@@@@@@##%%        OOOO",
"OO++OO    ++OO++@@@@@@@@@@@@@@@@@@@@@@@@@@@@##%%ooOOOO    OOOO++",
"OO++OO    ++OO++@@@@@@@@@@@@@@@@@@@@@@@@@@@@##%%ooOOOO    OOOO++",
"OO++++    @@@@@@@@XX  @@@@  @@XX  @@  $$++XX  ++OOOO++    ++++++",
"OO++++    @@@@@@@@XX  @@@@  @@XX  @@  $$++XX  ++OOOO++    ++++++",
"++@@@@      @@@@@@    @@@@@@XX      %%++OO    OOOOOO      @@@@@@",
"++@@@@      @@@@@@    @@@@@@XX      %%++OO    OOOOOO      @@@@@@",
"@@@@@@      @@@@        @@##  ++OO  OOOO        ++OO      @@++@@",
"@@@@@@      @@@@        @@##  ++OO  OOOO        ++OO      @@++@@",
"@@@@@@  ..                    ++OO                    ..  @@@@@@",
"@@@@@@  ..                    ++OO                    ..  @@@@@@",
"@@@@@@    @@@@##++  ..OOOOOO        OOOOOO  ..@@@@@@@@    @@@@@@",
"@@@@@@    @@@@##++  ..OOOOOO        OOOOOO  ..@@@@@@@@    @@@@@@",
"@@@@##    %%%%++oo    OOOOOO++  ..++++++++    @@@@@@@@    @@@@@@",
"@@@@##    %%%%++oo    OOOOOO++  ..++++++++    @@@@@@@@    @@@@@@",
"%%%%++    OOOOOOOO    ++OO++++    @@++@@@@    @@@@@@@@    @@%%++",
"%%%%++    OOOOOOOO    ++OO++++    @@++@@@@    @@@@@@@@    @@%%++",
"ooOO++    OO++OOOO    ++OO@@@@    @@@@@@@@    @@@@@@@@    ++OOOO",
"ooOO++    OO++OOOO    ++OO@@@@    @@@@@@@@    @@@@@@@@    ++OOOO",
"OOOOOO    ++++OO++    ..@@@@@@    @@@@@@XX    @@##%%%%    OOOOOO",
"OOOOOO    ++++OO++    ..@@@@@@    @@@@@@XX    @@##%%%%    OOOOOO",
"OOOOOO    OO++@@@@      @@@@@@    @@@@@@    ..oo%%OOOO    OO++OO",
"OOOOOO    OO++@@@@      @@@@@@    @@@@@@    ..oo%%OOOO    OO++OO",
"OOOO++    ..@@@@@@@@    @@@@@@    @@++%%    OOOOOOOOXX  ..++++++",
"OOOO++    ..@@@@@@@@    @@@@@@    @@++%%    OOOOOOOOXX  ..++++++",
"@@++++@@    @@@@@@@@    @@@@@@    ++%%OO    OO++OO++    ++@@@@@@",
"@@++++@@    @@@@@@@@    @@@@@@    ++%%OO    OO++OO++    ++@@@@@@",
"++@@@@@@    @@@@@@@@    %%%%oo    OOOOOO    ++OOOO++    @@@@@@@@",
"++@@@@@@    @@@@@@@@    %%%%oo    OOOOOO    ++OOOO++    @@@@@@@@",
"@@@@@@@@      @@##%%      OO++    OOOO      ++@@@@      @@@@@@@@",
"@@@@@@@@      @@##%%      OO++    OOOO      ++@@@@      @@@@@@@@",
"@@@@@@@@  ..      OO      OOOO    OO++      ++      ..  @@@@@@@@",
"@@@@@@@@  ..      OO      OOOO    OO++      ++      ..  @@@@@@@@",
"@@##%%%%    OOOO                                @@@@    @@@@@@##",
"@@##%%%%    OOOO                                @@@@    @@@@@@##",
"%%ooOOOO    OO++OOOO..    ++++  ..++@@    ..@@@@@@@@    @@@@%%++",
"%%ooOOOO    OO++OOOO..    ++++  ..++@@    ..@@@@@@@@    @@@@%%++",
"ooOOOOXX    OO++++OO    ++@@@@    ++@@@@    @@@@@@@@    ..%%OOOO",
"ooOOOOXX    OO++++OO    ++@@@@    ++@@@@    @@@@@@@@    ..%%OOOO",
"OOOOOO    ..++@@@@@@    @@  @@    @@  @@    @@@@%%++      OOOOOO",
"OOOOOO    ..++@@@@@@    @@  @@    @@  @@    @@@@%%++      OOOOOO",
"OOOO@@    @@@@@@@@@@    @@@@XX      @@@@    ++%%OO++OO    ++++++",
"OOOO@@    @@@@@@@@@@    @@@@XX      @@@@    ++%%OO++OO    ++++++",
"++@@@@    ++@@@@@@@@    @@@@  @@@@..@@$$    OOOOOOOOOO    ++++++",
"++@@@@    ++@@@@@@@@    @@@@  @@@@..@@$$    OOOOOOOOOO    ++++++",
"@@++@@@@@@@@@@@@@@@@@@@@@@@@@@@@@@##%%++ooOOOOOO++OO++OOOO++@@@@",
"@@++@@@@@@@@@@@@@@@@@@@@@@@@@@@@@@##%%++ooOOOOOO++OO++OOOO++@@@@",
"@@@@@@@@@@@@@@@@@@@@@@@@@@@@@@%%%%OOOOOOOOOOOOOO++OO++++++@@@@@@",
"@@@@@@@@@@@@@@@@@@@@@@@@@@@@@@%%%%OOOOOOOOOOOOOO++OO++++++@@@@@@",
"@@@@@@@@@@@@@@@@@@@@@@@@##%%++OOOOOOOOOOOOOOOO++++++@@@@@@@@@@@@",
"@@@@@@@@@@@@@@@@@@@@@@@@##%%++OOOOOOOOOOOOOOOO++++++@@@@@@@@@@@@"
};
