/* XPM */
static char *_0ff4a936d454c57c058fe1be1bbc24bPdLxS7d59CSPn91Y[] = {
/* columns rows colors chars-per-pixel */
"80 64 2 1 ",
"  c black",
". c #C4BA00",
/* pixels */
"                                                                                ",
" .............................................................................. ",
" .                                                                            . ",
" .                                                                            . ",
" .                                                                            . ",
" .                                                                            . ",
" .                               ............                                 . ",
" .       ...            ...      ............       ....        ....          . ",
" .       ....          ....    ....        ....     ....        ....          . ",
" .       ....          ....    ....        ....     ....        ....          . ",
" .        ....        ....     ....        ....     ....        ....          . ",
" .        .....      .....     ....        ....     ....        ....          . ",
" .         ....      ....      ....        ....     ....        ....          . ",
" .          ....    ....       ....        ....     ....        ....          . ",
" .          .....  .....       ....        ....     ....        ....          . ",
" .           ..........        ....        ....     ....        ....          . ",
" .            ........         ....        ....     ....        ....          . ",
" .             ......          ....        ....     ....        ....          . ",
" .             ......          ....        ....     ....        ....          . ",
" .              ....           ....        ....     ....        ....          . ",
" .              ....           ....        ....     ....        ....          . ",
" .              ....           ....        ....     ....        ....          . ",
" .              ....           ....        ....     ....        ....          . ",
" .              ....           ....        ....     ....        ....          . ",
" .              ....           ....        ....     ....        ....          . ",
" .              ....           ....        ....     ....        ....          . ",
" .              ....           ....        ....     ....        ....          . ",
" .              ....             ............         ............            . ",
" .              ....             ............         ............            . ",
" .                                                                            . ",
" .                                                                            . ",
" .                                                                            . ",
" .                                                                            . ",
" .                                                                            . ",
" .                                                                            . ",
" .        ...                  ...     ....        ...          ....          . ",
" .        ...                  ...     ....        ....         ....          . ",
" .        ...                  ...     ....        ....         ....          . ",
" .        ....                ....     ....        .....        ....          . ",
" .        ....                ....     ....        ......       ....          . ",
" .         ...                ...      ....        .......      ....          . ",
" .         ...                ...      ....        .......      ....          . ",
" .         ....              ....      ....        ........     ....          . ",
" .         ....              ....      ....        .........    ....          . ",
" .          ...              ...       ....        .... ....    ....          . ",
" .          ...     ...      ...       ....        ....  ....   ....          . ",
" .          ....    ....    ....       ....        ....  .....  ....          . ",
" .          ....   .....    ....       ....        ....   ....  ....          . ",
" .           ...   ......   ...        ....        ....    .... ....          . ",
" .           ...  .......   ...        ....        ....    .........          . ",
" .           .... ........ ....        ....        ....     ........          . ",
" .           ........ .........        ....        ....      .......          . ",
" .            .......  .......         ....        ....       ......          . ",
" .            ......    ......         ....        ....       ......          . ",
" .            ......    ......         ....        ....        .....          . ",
" .            .....      .....         ....        ....         ....          . ",
" .             ....      ....          ....        ....         ....          . ",
" .             ...        ...          ....        ....          ...          . ",
" .                                                                            . ",
" .                                                                            . ",
" .                                                                            . ",
" .                                                                            . ",
" .............................................................................. ",
"                                                                                "
};
