/* XPM */
static char *f1a35be513664e8cdea0091cb63a6f01kSgPFlZC9bpGhSjI[] = {
/* columns rows colors chars-per-pixel */
"64 64 7 1 ",
"  c #A2F6CB",
". c #B0F7D3",
"X c #B0F7DF",
"o c #B0F7EF",
"O c #BEF8F2",
"+ c #CCF9F5",
"@ c white",
/* pixels */
"ooooooooooooooooooooooooOO@@XX..................XXXXoooooooooooo",
"ooooooooooooooooooooooooOO@@XX..................XXXXoooooooooooo",
"oooooooooooooooooooo@@XXXX................XXXXXXooooXXoooooooooo",
"oooooooooooooooooooo@@XXXX................XXXXXXooooXXoooooooooo",
"ooooooooooooOO@@XX@@................XX..XXooXXoooooooooooooooooo",
"ooooooooooooOO@@XX@@................XX..XXooXXoooooooooooooooooo",
"ooooOOXX  @@XX  ..........XXXXXX..XXXXooooooooooooooooooooooooOO",
"ooooOOXX  @@XX  ..........XXXXXX..XXXXooooooooooooooooooooooooOO",
"@@XX@@  ..............XXXX....XXXXoooooooooooooooooooooooooo++@@",
"@@XX@@  ..............XXXX....XXXXoooooooooooooooooooooooooo++@@",
"  ........XX....XXXXXXXX....oooooooooooooooooooooooooooo@@@@XX..",
"  ........XX....XXXXXXXX....oooooooooooooooooooooooooooo@@@@XX..",
"..........XXXX....XXXXooooXXooooooooooooooooooooOO@@  XX........",
"..........XXXX....XXXXooooXXooooooooooooooooooooOO@@  XX........",
"..XX......XX..XXooooooooooooooooooooooooooooOO@@  ............XX",
"..XX......XX..XXooooooooooooooooooooooooooooOO@@  ............XX",
"..XXXXXXoooooooooooooooooooooooooooooo++XX@@  XX....XX..XXXXXXXX",
"..XXXXXXoooooooooooooooooooooooooooooo++XX@@  XX....XX..XXXXXXXX",
"XXoooooooooooooooooooooooooooooo@@XX@@XX................XXoooooo",
"XXoooooooooooooooooooooooooooooo@@XX@@XX................XXoooooo",
"ooooooooooooooooooooooooooOOOOXX................XX..ooXXooooXXoo",
"ooooooooooooooooooooooooooOOOOXX................XX..ooXXooooXXoo",
"oooooooooooooooooo@@@@XX  @@@@XX......XXXXXXXX..XXXXoooooooooooo",
"oooooooooooooooooo@@@@XX  @@@@XX......XXXXXXXX..XXXXoooooooooooo",
"ooooooooooooooOOXX..........................XXoooooooooooooooooo",
"ooooooooooooooOOXX..........................XXoooooooooooooooooo",
"ooooOOOOXX@@@@XX  ..........XXXX..XXXXXXXXoooooooooooooooooooooo",
"ooooOOOOXX@@@@XX  ..........XXXX..XXXXXXXXoooooooooooooooooooooo",
"@@@@XX@@............XXXX..XXXXXX..ooXXoooooooooooooooooooooo@@XX",
"@@@@XX@@............XXXX..XXXXXX..ooXXoooooooooooooooooooooo@@XX",
"  ..XX......XX......XXXX..ooooooXXooooooooooooooooooooOO@@XX....",
"  ..XX......XX......XXXX..ooooooXXooooooooooooooooooooOO@@XX....",
"........XXXXXX..XXXXooooooooooooooooooooooooooooOO@@@@XX........",
"........XXXXXX..XXXXooooooooooooooooooooooooooooOO@@@@XX........",
"............XXoooooooooooooooooooooooooooooo@@  @@..........XX..",
"............XXoooooooooooooooooooooooooooooo@@  @@..........XX..",
"....XXXXXXooooooooooooooooooooooooooXX@@  @@............XXXXXXXX",
"....XXXXXXooooooooooooooooooooooooooXX@@  @@............XXXXXXXX",
"ooXXXXooooooooooooooooooooooooOO@@XX@@........XX..XXXXXXXXoooooo",
"ooXXXXooooooooooooooooooooooooOO@@XX@@........XX..XXXXXXXXoooooo",
"XXooooooooooooooooooooXX@@@@  ..  ........XXXX....XXXXXXoooooooo",
"XXooooooooooooooooooooXX@@@@  ..  ........XXXX....XXXXXXoooooooo",
"ooooooooooooooooOO@@XXXX....XX..........XX..XXooooooooXXoooooooo",
"ooooooooooooooooOO@@XXXX....XX..........XX..XXooooooooXXoooooooo",
"ooooooooooOO@@XX  ......XX..........XX..XXXXXXoooooooooooooooooo",
"ooooooooooOO@@XX  ......XX..........XX..XXXXXXoooooooooooooooooo",
"ooOO@@@@XX..............XX....XXXXXXooooXXXXooooooooooooooooooOO",
"ooOO@@@@XX..............XX....XXXXXXooooXXXXooooooooooooooooooOO",
"@@  ..........XX......XX..XXXXooooXXoooooooooooooooooooooooo@@XX",
"@@  ..........XX......XX..XXXXooooXXoooooooooooooooooooooooo@@XX",
"  ............XXXX..XXXXXXooooooooXXooooooooooooooooOO@@XX@@....",
"  ............XXXX..XXXXXXooooooooXXooooooooooooooooOO@@XX@@....",
"......XX..XXXXooooooXXoooooooooooooooooooooooooo@@XX@@..........",
"......XX..XXXXooooooXXoooooooooooooooooooooooooo@@XX@@..........",
"....ooXXooooooooooooooooooooooooooooooooooooXX@@..XX......XXXXXX",
"....ooXXooooooooooooooooooooooooooooooooooooXX@@..XX......XXXXXX",
"XXooooooooXXoooooooooooooooooooooooooo++XX@@..............XXXXXX",
"XXooooooooXXoooooooooooooooooooooooooo++XX@@..............XXXXXX",
"ooXXooooooooooooooooooooooooooooooOO@@XX  ......XX..XX....XXoooo",
"ooXXooooooooooooooooooooooooooooooOO@@XX  ......XX..XX....XXoooo",
"oooooooooooooooooooooooooooooo@@@@..............XX..XXXXXXoooooo",
"oooooooooooooooooooooooooooooo@@@@..............XX..XXXXXXoooooo",
"ooooooooooooooooooooooooOO@@XX................XXXXXXoooooooooooo",
"ooooooooooooooooooooooooOO@@XX................XXXXXXoooooooooooo"
};
