/* XPM */
static char *e0fa03db1cbb4cc2ce0adbd04aab764fTY8GivnLZyibmBU3[] = {
/* columns rows colors chars-per-pixel */
"32 32 7 1 ",
"  c #A2F6CB",
". c #B0F7D3",
"X c #B0F7DF",
"o c #B0F7EF",
"O c #BEF8F2",
"+ c #CCF9F5",
"@ c white",
/* pixels */
"ooooooooooooO@X.........XXoooooo",
"oooooooooo@XX........XXXooXooooo",
"ooooooO@X@........X.XoXooooooooo",
"ooOX @X .....XXX.XXooooooooooooO",
"@X@ .......XX..XXooooooooooooo+@",
" ....X..XXXX..oooooooooooooo@@X.",
".....XX..XXooXooooooooooO@ X....",
".X...X.XooooooooooooooO@ ......X",
".XXXooooooooooooooo+X@ X..X.XXXX",
"Xooooooooooooooo@X@X........Xooo",
"oooooooooooooOOX........X.oXooXo",
"ooooooooo@@X @@X...XXXX.XXoooooo",
"oooooooOX.............Xooooooooo",
"ooOOX@@X .....XX.XXXXooooooooooo",
"@@X@......XX.XXX.oXooooooooooo@X",
" .X...X...XX.oooXooooooooooO@X..",
"....XXX.XXooooooooooooooO@@X....",
"......Xooooooooooooooo@ @.....X.",
"..XXXoooooooooooooX@ @......XXXX",
"oXXooooooooooooO@X@....X.XXXXooo",
"XooooooooooX@@ . ....XX..XXXoooo",
"ooooooooO@XX..X.....X.XooooXoooo",
"oooooO@X ...X.....X.XXXooooooooo",
"oO@@X.......X..XXXooXXoooooooooO",
"@ .....X...X.XXooXoooooooooooo@X",
" ......XX.XXXooooXooooooooO@X@..",
"...X.XXoooXooooooooooooo@X@.....",
"..oXooooooooooooooooooX@.X...XXX",
"XooooXooooooooooooo+X@.......XXX",
"oXoooooooooooooooO@X ...X.X..Xoo",
"ooooooooooooooo@@.......X.XXXooo",
"ooooooooooooO@X........XXXoooooo"
};
