/* XPM */
static char *_daed02824ce452c8e5545461ff14137ZnE2D8aKMr9Phvch[] = {
/* columns rows colors chars-per-pixel */
"64 64 17 1 ",
"  c black",
". c #001741",
"X c #9551A0",
"o c #78F3B3",
"O c #8E919D",
"+ c #86F4BB",
"@ c #8CB4FF",
"# c #9BBEFF",
"$ c #94F5C3",
"% c #A2F6CB",
"& c #B0F7D3",
"* c #B0F7DF",
"= c #B0F7EF",
"- c #BEF8F2",
"; c #C6C9CE",
": c #CCF9F5",
"> c white",
/* pixels */
"========================-->>**&&&&&&&&&&&&&&&&&&****============",
"========================-->>**&&&&&&&&&&&&&&&&&&****============",
"====================>>****&&&&&&&&&&&&&&&&******====**==========",
"====================>>****&&&&&&&&&&&&&&&&******====**==========",
"============-->>**>>&&&&&&&&&&&&&&&&**&&**==**==================",
"============-->>**>>&&&&&&&&&&&&&&&&**&&**==**==================",
"====--**%%>>**%%&&&&&&&&&&******&&****========================--",
"====--**%%>>**%%&&&&&&&&&&******&&****========================--",
">>**>>%%&&&&&&&&&&&&&&****&&&&****==========================::>>",
">>**>>%%&&&&&&&&&&&&&&****&&&&****==========================::>>",
"%%&&&&&&&&**&&&&********&&&&============================>>>>**&&",
"%%&&&&&&&&**&&&&********&&&&============================>>>>**&&",
"&&&&&&&&&&****&&&&****====**====================-->>%%**&&&&&&&&",
"&&&&&&&&&&****&&&&****====**====================-->>%%**&&&&&&&&",
"&&**&&&&&&**&&**============================-->>%%&&&&&&&&&&&&**",
"&&**&&&&&&**&&**============================-->>%%&&&&&&&&&&&&**",
"&&******==========..OOOOOOOO;;;;;;====::**>>%%**&&&&**&&********",
"&&******==========..OOOOOOOO;;;;;;====::**>>%%**&&&&**&&********",
"**============  ..OOOOXXOOOOOOOOOOOO;;**&&&&&&&&&&&&&&&&**======",
"**============  ..OOOOXXOOOOOOOOOOOO;;**&&&&&&&&&&&&&&&&**======",
"============..  OOOOOOXX..OOOOOOOOOOOO;;;;&&&&&&**&&==**====**==",
"============..  OOOOOOXX..OOOOOOOOOOOO;;;;&&&&&&**&&==**====**==",
"============    ..>>>>..  ..  ......OOOOOO****&&****============",
"============    ..>>>>..  ..  ......OOOOOO****&&****============",
"==============  ..  ..  &&&&&&&&&&....OOOOOO**==================",
"==============  ..  ..  &&&&&&&&&&....OOOOOO**==================",
"====----**>>>>**%%&&&&&&&&&&****&&****..  OOOO==================",
"====----**>>>>**%%&&&&&&&&&&****&&****..  OOOO==================",
">>>>**>>&&&&&&&&&&&&****&&******&&==**====  OOOO============>>**",
">>>>**>>&&&&&&&&&&&&****&&******&&==**====  OOOO============>>**",
"%%&&**&&&&&&**&&@@&&****&&======**==========  OO======-->>**&&&&",
"%%&&**&&&&&&**&&@@&&****&&======**==========  OO======-->>**&&&&",
"&&&&&&&&****%%@@@@@@========================..OO  >>>>**&&&&&&&&",
"&&&&&&&&****%%@@@@@@========================..OO  >>>>**&&&&&&&&",
"&&&&&&&&&&&&**######@@##====================  OOOO;;  &&&&&&**&&",
"&&&&&&&&&&&&**######@@##====================  OOOO;;  &&&&&&**&&",
"&&&&******====%%##$$==@@@@==========**>>%%  OO;;    ..&&>>******",
"&&&&******====%%##$$==@@@@==========**>>%%  OO;;    ..&&>>******",
"==****========%%%%############-->>**>>&&&&..OO  &&>>******==>>==",
"==****========%%%%############-->>**>>&&&&..OO  &&>>******==>>==",
"**================%%%%%%####%%@@##oo$$@@%%****>>&&****>>========",
"**================%%%%%%####%%@@##oo$$@@%%****>>&&****>>========",
"================-->>%%%%%%++++####@@##%%##>>**==>>====**>>====>>",
"================-->>%%%%%%++++####@@##%%##>>**==>>====**>>====>>",
"==========-->>**%%&&&&&&%%%%++%%%%%%**%%******>>>>>>============",
"==========-->>**%%&&&&&&%%%%++%%%%%%**%%******>>>>>>============",
"==-->>>>**&&&&&&&&&&&&&&**&&&&****%%====>>**==>>>>======>>====--",
"==-->>>>**&&&&&&&&&&&&&&**&&&&****%%====>>**==>>>>======>>====--",
">>%%&&&&&&&&&&**&&&&&&**&&****====>>================>>======>>**",
">>%%&&&&&&&&&&**&&&&&&**&&****====>>================>>======>>**",
"%%&&&&&&&&&&&&****&&******========**====>>==>>==>>==>>>>**>>&&&&",
"%%&&&&&&&&&&&&****&&******========**====>>==>>==>>==>>>>**>>&&&&",
"&&&&&&**&&****======**============>>============>>**>>&&&&&&&&&&",
"&&&&&&**&&****======**============>>============>>**>>&&&&&&&&&&",
"&&&&==**==============================>>====**>>&&**&&&&&&******",
"&&&&==**==============================>>====**>>&&**&&&&&&******",
"**========**==========================::**>>&&&&&&&&&&&&&&******",
"**========**==========================::**>>&&&&&&&&&&&&&&******",
"==**==============================-->>**%%&&&&&&**&&**&&&&**====",
"==**==============================-->>**%%&&&&&&**&&**&&&&**====",
"==============================>>>>&&&&&&&&&&&&&&**&&******======",
"==============================>>>>&&&&&&&&&&&&&&**&&******======",
"========================-->>**&&&&&&&&&&&&&&&&******============",
"========================-->>**&&&&&&&&&&&&&&&&******============"
};
