/* XPM */
static char *_a2651fa85ea4929db03778b273f1c031s3MhspPMwOlT6Es[] = {
/* columns rows colors chars-per-pixel */
"32 32 17 1 ",
"  c black",
". c #001741",
"X c #9551A0",
"o c #78F3B3",
"O c #8E919D",
"+ c #86F4BB",
"@ c #8CB4FF",
"# c #9BBEFF",
"$ c #94F5C3",
"% c #A2F6CB",
"& c #B0F7D3",
"* c #B0F7DF",
"= c #B0F7EF",
"- c #BEF8F2",
"; c #C6C9CE",
": c #CCF9F5",
"> c white",
/* pixels */
"============->*&&&&&&&&&**======",
"==========>**&&&&&&&&***==*=====",
"======->*>&&&&&&&&*&*=*=========",
"==-*%>*%&&&&&***&**============-",
">*>%&&&&&&&**&&**=============:>",
"%&&&&*&&****&&==============>>*&",
"&&&&&**&&**==*==========->%*&&&&",
"&*&&&*&*==============->%&&&&&&*",
"&***=====.OOOO;;;==:*>%*&&*&****",
"*====== .OOXOOOOOO;*&&&&&&&&*===",
"======. OOOX.OOOOOO;;&&&*&=*==*=",
"======  .>>. . ...OOO**&**======",
"======= . . &&&&&..OOO*=========",
"==--*>>*%&&&&&**&**. OO=========",
">>*>&&&&&&**&***&=*== OO======>*",
"%&*&&&*&@&**&===*===== O===->*&&",
"&&&&**%@@@============.O >>*&&&&",
"&&&&&&*###@#========== OO; &&&*&",
"&&***==%#$=@@=====*>% O;  .&>***",
"=**====%%######->*>&&.O &>***=>=",
"*========%%%##%@#o$@%**>&**>====",
"========->%%%++##@#%#>*=>==*>==>",
"=====->*%&&&%%+%%%*%***>>>======",
"=->>*&&&&&&&*&&**%==>*=>>===>==-",
">%&&&&&*&&&*&**==>========>===>*",
"%&&&&&&**&***====*==>=>=>=>>*>&&",
"&&&*&**===*======>======>*>&&&&&",
"&&=*===============>==*>&*&&&***",
"*====*=============:*>&&&&&&&***",
"=*===============->*%&&&*&*&&*==",
"===============>>&&&&&&&*&***===",
"============->*&&&&&&&&***======"
};
